<svg width="102" height="80" viewBox="0 0 102 80" fill="none" xmlns="http://www.w3.org/2000/svg">
<g clip-path="url(#clip0_5_1437)">
<path opacity="0.4" d="M59.8359 5.85938C60.5394 5.15593 61.4935 4.76074 62.4883 4.76074C63.4831 4.76074 64.4372 5.15593 65.1406 5.85938C65.8441 6.56282 66.2393 7.5169 66.2393 8.51172C66.2393 9.50654 65.8441 10.4606 65.1406 11.1641C64.4372 11.8675 63.4831 12.2627 62.4883 12.2627C61.4935 12.2627 60.5394 11.8675 59.8359 11.1641C59.1325 10.4606 58.7373 9.50654 58.7373 8.51172C58.7373 8.01914 58.8343 7.53137 59.0228 7.07628C59.2113 6.62119 59.4876 6.20769 59.8359 5.85938ZM63.5 20C63.5 19.0054 63.8951 18.0516 64.5984 17.3484C65.3016 16.6451 66.2554 16.25 67.25 16.25C68.2446 16.25 69.1984 16.6451 69.9017 17.3484C70.6049 18.0516 71 19.0054 71 20C71 20.9946 70.6049 21.9484 69.9017 22.6517C69.1984 23.3549 68.2446 23.75 67.25 23.75C66.2554 23.75 65.3016 23.3549 64.5984 22.6517C63.8951 21.9484 63.5 20.9946 63.5 20ZM47.25 36.25C47.25 35.2554 47.6451 34.3016 48.3484 33.5984C49.0516 32.8951 50.0054 32.5 51 32.5C51.9946 32.5 52.9484 32.8951 53.6517 33.5984C54.3549 34.3016 54.75 35.2554 54.75 36.25C54.75 37.2446 54.3549 38.1984 53.6517 38.9017C52.9484 39.6049 51.9946 40 51 40C50.0054 40 49.0516 39.6049 48.3484 38.9017C47.6451 38.1984 47.25 37.2446 47.25 36.25ZM36.8594 28.8359C37.5628 28.1325 38.5169 27.7373 39.5117 27.7373C40.0043 27.7373 40.4921 27.8343 40.9472 28.0228C41.4023 28.2113 41.8158 28.4876 42.1641 28.8359C42.5124 29.1843 42.7887 29.5978 42.9772 30.0528C43.1657 30.5079 43.2627 30.9957 43.2627 31.4883C43.2627 31.9809 43.1657 32.4686 42.9772 32.9237C42.7887 33.3788 42.5124 33.7923 42.1641 34.1406C41.4606 34.8441 40.5065 35.2393 39.5117 35.2393C38.5169 35.2393 37.5628 34.8441 36.8594 34.1406C36.1559 33.4372 35.7607 32.4831 35.7607 31.4883C35.7607 30.4935 36.1559 29.5394 36.8594 28.8359ZM59.8438 28.8359C60.188 28.4703 60.6022 28.1776 61.0617 27.9751C61.5213 27.7726 62.0168 27.6644 62.5189 27.657C63.0211 27.6497 63.5196 27.7432 63.9848 27.9322C64.4501 28.1211 64.8727 28.4016 65.2276 28.7569C65.5824 29.1123 65.8622 29.5353 66.0505 30.0009C66.2388 30.4664 66.3316 30.9651 66.3235 31.4672C66.3154 31.9693 66.2065 32.4647 66.0033 32.9239C65.8001 33.3832 65.5068 33.7969 65.1406 34.1406C64.7923 34.4889 64.3788 34.7652 63.9237 34.9537C63.4686 35.1422 62.9809 35.2393 62.4883 35.2393C61.9957 35.2393 61.5079 35.1422 61.0528 34.9537C60.5978 34.7652 60.1843 34.4889 59.8359 34.1406C59.4876 33.7923 59.2113 33.3788 59.0228 32.9237C58.8343 32.4686 58.7373 31.9809 58.7373 31.4883C58.7373 30.9957 58.8343 30.5079 59.0228 30.0528C59.2113 29.5978 59.4876 29.1843 59.8359 28.8359H59.8438Z" fill="#0066FF"/>
<path d="M54.75 3.75C54.75 2.75544 54.3549 1.80161 53.6517 1.09835C52.9484 0.395088 51.9946 0 51 0C50.0054 0 49.0516 0.395088 48.3483 1.09835C47.6451 1.80161 47.25 2.75544 47.25 3.75C47.25 4.74456 47.6451 5.69839 48.3483 6.40165C49.0516 7.10491 50.0054 7.5 51 7.5C51.9946 7.5 52.9484 7.10491 53.6517 6.40165C54.3549 5.69839 54.75 4.74456 54.75 3.75ZM38.5 20C38.5 19.0054 38.1049 18.0516 37.4017 17.3483C36.6984 16.6451 35.7446 16.25 34.75 16.25C33.7554 16.25 32.8016 16.6451 32.0983 17.3483C31.3951 18.0516 31 19.0054 31 20C31 20.9946 31.3951 21.9484 32.0983 22.6517C32.8016 23.3549 33.7554 23.75 34.75 23.75C35.7446 23.75 36.6984 23.3549 37.4017 22.6517C38.1049 21.9484 38.5 20.9946 38.5 20ZM36.8594 11.1641C37.2077 11.5124 37.6212 11.7887 38.0763 11.9772C38.5314 12.1657 39.0191 12.2627 39.5117 12.2627C40.0043 12.2627 40.4921 12.1657 40.9472 11.9772C41.4022 11.7887 41.8158 11.5124 42.1641 11.1641C42.5124 10.8158 42.7887 10.4022 42.9772 9.94716C43.1657 9.49207 43.2627 9.0043 43.2627 8.51172C43.2627 8.01913 43.1657 7.53137 42.9772 7.07628C42.7887 6.62119 42.5124 6.20769 42.1641 5.85938C41.4606 5.15593 40.5065 4.76074 39.5117 4.76074C38.5169 4.76074 37.5628 5.15593 36.8594 5.85938C36.1559 6.56282 35.7607 7.5169 35.7607 8.51172C35.7607 9.50654 36.1559 10.4606 36.8594 11.1641Z" fill="#0066FF"/>
</g>
<path d="M1.23295 73V62.8182H4.6733C5.46875 62.8182 6.12169 62.9541 6.6321 63.2259C7.14252 63.4943 7.52036 63.8639 7.76562 64.3345C8.01089 64.8052 8.13352 65.3404 8.13352 65.9403C8.13352 66.5402 8.01089 67.0722 7.76562 67.5362C7.52036 68.0002 7.14418 68.3648 6.63707 68.63C6.12997 68.8918 5.48201 69.0227 4.69318 69.0227H1.90909V67.9091H4.65341C5.19697 67.9091 5.63447 67.8295 5.96591 67.6705C6.30066 67.5114 6.54261 67.286 6.69176 66.9943C6.84422 66.6993 6.92045 66.348 6.92045 65.9403C6.92045 65.5327 6.84422 65.1764 6.69176 64.8714C6.5393 64.5665 6.29569 64.3312 5.96094 64.1655C5.62618 63.9964 5.18371 63.9119 4.63352 63.9119H2.46591V73H1.23295ZM6.02557 68.4261L8.53125 73H7.09943L4.63352 68.4261H6.02557ZM12.2761 73.179C11.7922 73.179 11.353 73.0878 10.9586 72.9055C10.5642 72.7199 10.251 72.4531 10.019 72.1051C9.78699 71.7538 9.67099 71.3295 9.67099 70.8324C9.67099 70.3949 9.75716 70.0402 9.92951 69.7685C10.1019 69.4934 10.3322 69.2779 10.6206 69.1222C10.9089 68.9664 11.2271 68.8504 11.5751 68.7741C11.9264 68.6946 12.2794 68.6316 12.6341 68.5852C13.0981 68.5256 13.4743 68.4808 13.7626 68.451C14.0543 68.4179 14.2664 68.3632 14.399 68.2869C14.5349 68.2107 14.6028 68.0781 14.6028 67.8892V67.8494C14.6028 67.3589 14.4686 66.9777 14.2001 66.706C13.935 66.4342 13.5323 66.2983 12.992 66.2983C12.4319 66.2983 11.9927 66.4209 11.6745 66.6662C11.3564 66.9115 11.1326 67.1733 11.0034 67.4517L9.88974 67.054C10.0886 66.59 10.3538 66.2287 10.6852 65.9702C11.0199 65.7083 11.3845 65.526 11.7789 65.4233C12.1767 65.3172 12.5678 65.2642 12.9522 65.2642C13.1975 65.2642 13.4792 65.294 13.7974 65.3537C14.1189 65.41 14.4288 65.5277 14.7271 65.7067C15.0287 65.8857 15.2789 66.1558 15.4778 66.517C15.6767 66.8783 15.7761 67.3622 15.7761 67.9688V73H14.6028V71.9659H14.5431C14.4636 72.1316 14.331 72.3089 14.1454 72.4979C13.9598 72.6868 13.7129 72.8475 13.4047 72.9801C13.0964 73.1127 12.7202 73.179 12.2761 73.179ZM12.4551 72.125C12.9191 72.125 13.3102 72.0339 13.6284 71.8516C13.9499 71.6693 14.1918 71.4339 14.3542 71.1456C14.5199 70.8572 14.6028 70.554 14.6028 70.2358V69.1619C14.5531 69.2216 14.4437 69.2763 14.2747 69.326C14.109 69.3724 13.9167 69.4138 13.698 69.4503C13.4825 69.4834 13.2721 69.5133 13.0666 69.5398C12.8644 69.563 12.7003 69.5829 12.5744 69.5994C12.2695 69.6392 11.9844 69.7038 11.7193 69.7933C11.4574 69.8795 11.2453 70.0104 11.0829 70.1861C10.9238 70.3584 10.8443 70.5937 10.8443 70.892C10.8443 71.2997 10.9951 71.608 11.2967 71.8168C11.6016 72.0223 11.9877 72.125 12.4551 72.125ZM21.2386 65.3636V66.358H17.2812V65.3636H21.2386ZM18.4347 63.5341H19.608V70.8125C19.608 71.1439 19.656 71.3925 19.7521 71.5582C19.8516 71.7206 19.9775 71.83 20.13 71.8864C20.2857 71.9394 20.4498 71.9659 20.6222 71.9659C20.7514 71.9659 20.8575 71.9593 20.9403 71.946C21.0232 71.9295 21.0895 71.9162 21.1392 71.9062L21.3778 72.9602C21.2983 72.9901 21.1873 73.0199 21.0447 73.0497C20.9022 73.0829 20.7216 73.0994 20.5028 73.0994C20.1714 73.0994 19.8466 73.0282 19.5284 72.8857C19.2135 72.7431 18.9517 72.526 18.7429 72.2344C18.5374 71.9427 18.4347 71.5748 18.4347 71.1307V63.5341ZM26.1232 73.1591C25.3874 73.1591 24.7527 72.9967 24.2191 72.6719C23.6888 72.3438 23.2795 71.8864 22.9911 71.2997C22.7061 70.7098 22.5636 70.0237 22.5636 69.2415C22.5636 68.4593 22.7061 67.7699 22.9911 67.1733C23.2795 66.5734 23.6805 66.1061 24.1942 65.7713C24.7113 65.4332 25.3145 65.2642 26.0039 65.2642C26.4016 65.2642 26.7944 65.3305 27.1822 65.4631C27.57 65.5956 27.9229 65.8111 28.2411 66.1094C28.5593 66.4044 28.8129 66.7955 29.0018 67.2827C29.1907 67.7699 29.2852 68.3698 29.2852 69.0824V69.5795H23.3988V68.5653H28.092C28.092 68.1345 28.0058 67.75 27.8335 67.4119C27.6644 67.0739 27.4225 66.8071 27.1076 66.6115C26.796 66.416 26.4281 66.3182 26.0039 66.3182C25.5366 66.3182 25.1322 66.4342 24.7908 66.6662C24.4528 66.8949 24.1926 67.1932 24.0103 67.5611C23.828 67.929 23.7369 68.3234 23.7369 68.7443V69.4205C23.7369 69.9972 23.8363 70.486 24.0352 70.8871C24.2373 71.2848 24.5174 71.5881 24.8754 71.7969C25.2333 72.0024 25.6493 72.1051 26.1232 72.1051C26.4315 72.1051 26.7099 72.062 26.9585 71.9759C27.2103 71.8864 27.4274 71.7538 27.6097 71.5781C27.792 71.3991 27.9329 71.1771 28.0323 70.9119L29.1658 71.2301C29.0465 71.6146 28.846 71.9527 28.5643 72.2443C28.2826 72.5327 27.9345 72.758 27.5202 72.9205C27.1059 73.0795 26.6403 73.1591 26.1232 73.1591ZM36.479 67.0739L35.4251 67.3722C35.3588 67.1965 35.261 67.0258 35.1317 66.8601C35.0058 66.6911 34.8335 66.5518 34.6147 66.4425C34.396 66.3331 34.1159 66.2784 33.7745 66.2784C33.3072 66.2784 32.9177 66.3861 32.6062 66.6016C32.2979 66.8137 32.1438 67.0838 32.1438 67.4119C32.1438 67.7036 32.2499 67.9339 32.462 68.103C32.6741 68.272 33.0056 68.4129 33.4563 68.5256L34.5898 68.804C35.2726 68.9697 35.7814 69.2232 36.1161 69.5646C36.4509 69.9027 36.6183 70.3385 36.6183 70.8722C36.6183 71.3097 36.4923 71.7008 36.2404 72.0455C35.9918 72.3902 35.6438 72.6619 35.1964 72.8608C34.7489 73.0597 34.2286 73.1591 33.6353 73.1591C32.8564 73.1591 32.2118 72.9901 31.7013 72.652C31.1909 72.3139 30.8678 71.8201 30.7319 71.1705L31.8455 70.892C31.9516 71.303 32.1521 71.6113 32.4471 71.8168C32.7454 72.0223 33.1348 72.125 33.6154 72.125C34.1623 72.125 34.5965 72.009 34.918 71.777C35.2428 71.5417 35.4052 71.2599 35.4052 70.9318C35.4052 70.6667 35.3124 70.4446 35.1268 70.2656C34.9412 70.0833 34.6561 69.9474 34.2717 69.858L32.9989 69.5597C32.2996 69.3939 31.7859 69.1371 31.4577 68.7891C31.1329 68.4377 30.9705 67.9986 30.9705 67.4716C30.9705 67.0407 31.0915 66.6596 31.3335 66.3281C31.5787 65.9967 31.9118 65.7365 32.3327 65.5476C32.757 65.3587 33.2376 65.2642 33.7745 65.2642C34.5302 65.2642 35.1235 65.4299 35.5543 65.7614C35.9885 66.0928 36.2968 66.5303 36.479 67.0739ZM43.4952 62.8182V73H42.3219V62.8182H43.4952ZM48.7464 73.1591C48.0571 73.1591 47.4522 72.995 46.9318 72.6669C46.4148 72.3388 46.0104 71.8797 45.7188 71.2898C45.4304 70.6998 45.2862 70.0104 45.2862 69.2216C45.2862 68.4261 45.4304 67.7318 45.7188 67.1385C46.0104 66.5452 46.4148 66.0845 46.9318 65.7564C47.4522 65.4283 48.0571 65.2642 48.7464 65.2642C49.4358 65.2642 50.0391 65.4283 50.5561 65.7564C51.0765 66.0845 51.4808 66.5452 51.7692 67.1385C52.0608 67.7318 52.2067 68.4261 52.2067 69.2216C52.2067 70.0104 52.0608 70.6998 51.7692 71.2898C51.4808 71.8797 51.0765 72.3388 50.5561 72.6669C50.0391 72.995 49.4358 73.1591 48.7464 73.1591ZM48.7464 72.1051C49.2701 72.1051 49.701 71.9709 50.0391 71.7024C50.3771 71.4339 50.6274 71.081 50.7898 70.6435C50.9522 70.206 51.0334 69.732 51.0334 69.2216C51.0334 68.7112 50.9522 68.2356 50.7898 67.7947C50.6274 67.3539 50.3771 66.9976 50.0391 66.7259C49.701 66.4541 49.2701 66.3182 48.7464 66.3182C48.2228 66.3182 47.7919 66.4541 47.4538 66.7259C47.1158 66.9976 46.8655 67.3539 46.7031 67.7947C46.5407 68.2356 46.4595 68.7112 46.4595 69.2216C46.4595 69.732 46.5407 70.206 46.7031 70.6435C46.8655 71.081 47.1158 71.4339 47.4538 71.7024C47.7919 71.9709 48.2228 72.1051 48.7464 72.1051ZM56.2449 73.179C55.7609 73.179 55.3218 73.0878 54.9274 72.9055C54.533 72.7199 54.2198 72.4531 53.9877 72.1051C53.7557 71.7538 53.6397 71.3295 53.6397 70.8324C53.6397 70.3949 53.7259 70.0402 53.8983 69.7685C54.0706 69.4934 54.301 69.2779 54.5893 69.1222C54.8777 68.9664 55.1958 68.8504 55.5439 68.7741C55.8952 68.6946 56.2482 68.6316 56.6028 68.5852C57.0668 68.5256 57.443 68.4808 57.7314 68.451C58.023 68.4179 58.2351 68.3632 58.3677 68.2869C58.5036 68.2107 58.5716 68.0781 58.5716 67.8892V67.8494C58.5716 67.3589 58.4373 66.9777 58.1689 66.706C57.9037 66.4342 57.501 66.2983 56.9608 66.2983C56.4006 66.2983 55.9615 66.4209 55.6433 66.6662C55.3251 66.9115 55.1014 67.1733 54.9721 67.4517L53.8585 67.054C54.0574 66.59 54.3225 66.2287 54.6539 65.9702C54.9887 65.7083 55.3533 65.526 55.7477 65.4233C56.1454 65.3172 56.5365 65.2642 56.921 65.2642C57.1663 65.2642 57.448 65.294 57.7662 65.3537C58.0877 65.41 58.3975 65.5277 58.6958 65.7067C58.9975 65.8857 59.2477 66.1558 59.4466 66.517C59.6454 66.8783 59.7449 67.3622 59.7449 67.9688V73H58.5716V71.9659H58.5119C58.4324 72.1316 58.2998 72.3089 58.1142 72.4979C57.9286 72.6868 57.6816 72.8475 57.3734 72.9801C57.0652 73.1127 56.689 73.179 56.2449 73.179ZM56.4238 72.125C56.8878 72.125 57.2789 72.0339 57.5971 71.8516C57.9186 71.6693 58.1606 71.4339 58.323 71.1456C58.4887 70.8572 58.5716 70.554 58.5716 70.2358V69.1619C58.5218 69.2216 58.4125 69.2763 58.2434 69.326C58.0777 69.3724 57.8855 69.4138 57.6667 69.4503C57.4513 69.4834 57.2408 69.5133 57.0353 69.5398C56.8332 69.563 56.6691 69.5829 56.5431 69.5994C56.2382 69.6392 55.9532 69.7038 55.688 69.7933C55.4262 69.8795 55.2141 70.0104 55.0517 70.1861C54.8926 70.3584 54.813 70.5937 54.813 70.892C54.813 71.2997 54.9638 71.608 55.2654 71.8168C55.5704 72.0223 55.9565 72.125 56.4238 72.125ZM64.7699 73.1591C64.1335 73.1591 63.5717 72.9983 63.0845 72.6768C62.5973 72.352 62.2161 71.8946 61.9411 71.3047C61.666 70.7114 61.5284 70.0104 61.5284 69.2017C61.5284 68.3996 61.666 67.7036 61.9411 67.1136C62.2161 66.5237 62.599 66.0679 63.0895 65.7464C63.58 65.425 64.1468 65.2642 64.7898 65.2642C65.2869 65.2642 65.6797 65.3471 65.968 65.5128C66.2597 65.6752 66.4818 65.8608 66.6342 66.0696C66.79 66.2751 66.911 66.4441 66.9972 66.5767H67.0966V62.8182H68.2699V73H67.1364V71.8267H66.9972C66.911 71.9659 66.7884 72.1416 66.6293 72.3537C66.4702 72.5625 66.2431 72.7498 65.9482 72.9155C65.6532 73.0779 65.2604 73.1591 64.7699 73.1591ZM64.929 72.1051C65.3996 72.1051 65.7973 71.9825 66.1222 71.7372C66.447 71.4886 66.6939 71.1456 66.8629 70.7081C67.032 70.2673 67.1165 69.7585 67.1165 69.1818C67.1165 68.6117 67.0336 68.1129 66.8679 67.6854C66.7022 67.2545 66.4569 66.9197 66.1321 66.6811C65.8073 66.4392 65.4063 66.3182 64.929 66.3182C64.4318 66.3182 64.0175 66.4458 63.6861 66.701C63.358 66.9529 63.111 67.2959 62.9453 67.7301C62.7829 68.161 62.7017 68.6449 62.7017 69.1818C62.7017 69.7254 62.7846 70.2192 62.9503 70.6634C63.1193 71.1042 63.3679 71.4555 63.696 71.7173C64.0275 71.9759 64.4384 72.1051 64.929 72.1051ZM70.5817 73V65.3636H71.755V73H70.5817ZM71.1783 64.0909C70.9496 64.0909 70.7524 64.013 70.5866 63.8572C70.4242 63.7015 70.343 63.5142 70.343 63.2955C70.343 63.0767 70.4242 62.8894 70.5866 62.7337C70.7524 62.5779 70.9496 62.5 71.1783 62.5C71.407 62.5 71.6025 62.5779 71.7649 62.7337C71.9306 62.8894 72.0135 63.0767 72.0135 63.2955C72.0135 63.5142 71.9306 63.7015 71.7649 63.8572C71.6025 64.013 71.407 64.0909 71.1783 64.0909ZM75.0772 68.4062V73H73.9039V65.3636H75.0375V66.5568H75.1369C75.3159 66.169 75.5877 65.8575 75.9522 65.6222C76.3168 65.3835 76.7875 65.2642 77.3642 65.2642C77.8812 65.2642 78.3336 65.3703 78.7214 65.5824C79.1092 65.7912 79.4108 66.1094 79.6262 66.5369C79.8417 66.9612 79.9494 67.4981 79.9494 68.1477V73H78.7761V68.2273C78.7761 67.6274 78.6203 67.16 78.3088 66.8253C77.9972 66.4872 77.5697 66.3182 77.0261 66.3182C76.6516 66.3182 76.3168 66.3994 76.0218 66.5618C75.7302 66.7242 75.4998 66.9612 75.3308 67.2727C75.1618 67.5843 75.0772 67.9621 75.0772 68.4062ZM85.1758 76.0227C84.609 76.0227 84.1218 75.9498 83.7141 75.804C83.3065 75.6615 82.9667 75.4725 82.695 75.2372C82.4265 75.0052 82.2127 74.7566 82.0536 74.4915L82.9883 73.8352C83.0943 73.9744 83.2286 74.1335 83.391 74.3125C83.5534 74.4948 83.7754 74.6522 84.0572 74.7848C84.3422 74.9207 84.7151 74.9886 85.1758 74.9886C85.7923 74.9886 86.301 74.8395 86.7021 74.5412C87.1031 74.2429 87.3036 73.7756 87.3036 73.1392V71.5881H87.2042C87.118 71.7273 86.9954 71.8996 86.8363 72.1051C86.6805 72.3073 86.4551 72.4879 86.1602 72.647C85.8685 72.8028 85.4741 72.8807 84.9769 72.8807C84.3604 72.8807 83.8069 72.7348 83.3164 72.4432C82.8292 72.1515 82.4431 71.7273 82.158 71.1705C81.8763 70.6136 81.7354 69.9375 81.7354 69.142C81.7354 68.3598 81.873 67.6787 82.1481 67.0987C82.4232 66.5154 82.806 66.0646 83.2965 65.7464C83.7871 65.425 84.3538 65.2642 84.9968 65.2642C85.494 65.2642 85.8884 65.3471 86.18 65.5128C86.475 65.6752 86.7004 65.8608 86.8562 66.0696C87.0153 66.2751 87.1379 66.4441 87.2241 66.5767H87.3434V65.3636H88.4769V73.2188C88.4769 73.875 88.3278 74.4086 88.0295 74.8196C87.7345 75.2339 87.3368 75.5372 86.8363 75.7294C86.3391 75.925 85.7856 76.0227 85.1758 76.0227ZM85.136 71.8267C85.6067 71.8267 86.0044 71.719 86.3292 71.5036C86.654 71.2881 86.9009 70.9782 87.07 70.5739C87.239 70.1695 87.3235 69.6856 87.3235 69.1222C87.3235 68.572 87.2406 68.0864 87.0749 67.6655C86.9092 67.2446 86.6639 66.9148 86.3391 66.6761C86.0143 66.4375 85.6133 66.3182 85.136 66.3182C84.6388 66.3182 84.2246 66.4441 83.8931 66.696C83.565 66.9479 83.3181 67.286 83.1523 67.7102C82.9899 68.1345 82.9087 68.6051 82.9087 69.1222C82.9087 69.6525 82.9916 70.1214 83.1573 70.5291C83.3263 70.9335 83.5749 71.2517 83.9031 71.4837C84.2345 71.7124 84.6455 71.8267 85.136 71.8267ZM91.4798 73.0795C91.2345 73.0795 91.024 72.9917 90.8484 72.8161C90.6727 72.6404 90.5849 72.4299 90.5849 72.1847C90.5849 71.9394 90.6727 71.7289 90.8484 71.5533C91.024 71.3776 91.2345 71.2898 91.4798 71.2898C91.725 71.2898 91.9355 71.3776 92.1112 71.5533C92.2868 71.7289 92.3746 71.9394 92.3746 72.1847C92.3746 72.3471 92.3332 72.4962 92.2504 72.6321C92.1708 72.768 92.0631 72.8774 91.9272 72.9602C91.7946 73.0398 91.6455 73.0795 91.4798 73.0795ZM95.3352 73.0795C95.09 73.0795 94.8795 72.9917 94.7038 72.8161C94.5282 72.6404 94.4403 72.4299 94.4403 72.1847C94.4403 71.9394 94.5282 71.7289 94.7038 71.5533C94.8795 71.3776 95.09 71.2898 95.3352 71.2898C95.5805 71.2898 95.791 71.3776 95.9666 71.5533C96.1423 71.7289 96.2301 71.9394 96.2301 72.1847C96.2301 72.3471 96.1887 72.4962 96.1058 72.6321C96.0263 72.768 95.9186 72.8774 95.7827 72.9602C95.6501 73.0398 95.5009 73.0795 95.3352 73.0795ZM99.1907 73.0795C98.9454 73.0795 98.735 72.9917 98.5593 72.8161C98.3836 72.6404 98.2958 72.4299 98.2958 72.1847C98.2958 71.9394 98.3836 71.7289 98.5593 71.5533C98.735 71.3776 98.9454 71.2898 99.1907 71.2898C99.436 71.2898 99.6464 71.3776 99.8221 71.5533C99.9978 71.7289 100.086 71.9394 100.086 72.1847C100.086 72.3471 100.044 72.4962 99.9613 72.6321C99.8817 72.768 99.774 72.8774 99.6381 72.9602C99.5056 73.0398 99.3564 73.0795 99.1907 73.0795Z" fill="#80858C"/>
<defs>
<clipPath id="clip0_5_1437">
<rect width="40" height="40" fill="white" transform="translate(31)"/>
</clipPath>
</defs>
</svg>
