<svg width="25" height="24" viewBox="0 0 25 24" fill="none" xmlns="http://www.w3.org/2000/svg">
<path d="M8.17954 19.7726C8.51518 20.0758 9.05791 20.0758 9.38998 19.7726C9.72205 19.4695 9.72562 18.9792 9.38998 18.6793L7.42613 16.9055L17.6413 16.9022C18.1162 16.9022 18.4982 16.5571 18.4982 16.1282C18.4982 15.6993 18.1162 15.3542 17.6413 15.3542H7.42613L9.38998 13.5803C9.72562 13.2772 9.72562 12.7869 9.38998 12.487C9.05434 12.1871 8.51161 12.1838 8.17954 12.487L4.75173 15.5799C4.41609 15.8831 4.41609 16.3733 4.75173 16.6733L8.17954 19.7694V19.7726ZM20.2483 8.42008C20.5839 8.11691 20.5839 7.62669 20.2483 7.32675L16.8205 4.22737C16.4848 3.92421 15.9421 3.92421 15.61 4.22737C15.278 4.53054 15.2744 5.02076 15.61 5.3207L17.5739 7.09454L7.35874 7.09776C6.88384 7.09776 6.50179 7.44285 6.50179 7.8718C6.50179 8.30075 6.88384 8.64584 7.35874 8.64584H17.5739L15.61 10.4197C15.2744 10.7228 15.2744 11.2131 15.61 11.513C15.9457 11.8129 16.4884 11.8162 16.8205 11.513L20.2483 8.41685V8.42008Z" fill="#80858C"/>
</svg>
