<svg width="24" height="24" viewBox="0 0 24 24" fill="none" xmlns="http://www.w3.org/2000/svg">
<path d="M19.1724 10.8571C19.631 10.8571 20 10.475 20 10V4.85714C20 4.38214 19.631 4 19.1724 4C18.7138 4 18.3448 4.38214 18.3448 4.85714V7.71786L17.6552 6.87857C16.2414 5.12143 14.1069 4 11.7241 4C7.45862 4 4 7.58214 4 12C4 16.4179 7.45862 20 11.7241 20C13.4621 20 15.069 19.4036 16.3586 18.4C16.7241 18.1143 16.7966 17.5786 16.5241 17.2C16.2517 16.8214 15.731 16.7464 15.3655 17.0286C14.3517 17.8179 13.0931 18.2857 11.7241 18.2857C8.37241 18.2857 5.65517 15.4714 5.65517 12C5.65517 8.52857 8.37241 5.71429 11.7241 5.71429C13.5966 5.71429 15.2724 6.59286 16.3862 7.97857L16.3897 7.98571L17.3414 9.14286H14.2069C13.7483 9.14286 13.3793 9.525 13.3793 10C13.3793 10.475 13.7483 10.8571 14.2069 10.8571H19.1724Z" fill="#0066FF"/>
</svg>
