<svg width="40" height="40" viewBox="0 0 40 40" fill="none" xmlns="http://www.w3.org/2000/svg">
<g clip-path="url(#clip0_5_899)">
<path opacity="0.4" d="M28.8359 5.85938C29.5394 5.15593 30.4935 4.76074 31.4883 4.76074C32.4831 4.76074 33.4372 5.15593 34.1406 5.85938C34.8441 6.56282 35.2393 7.5169 35.2393 8.51172C35.2393 9.50654 34.8441 10.4606 34.1406 11.1641C33.4372 11.8675 32.4831 12.2627 31.4883 12.2627C30.4935 12.2627 29.5394 11.8675 28.8359 11.1641C28.1325 10.4606 27.7373 9.50654 27.7373 8.51172C27.7373 8.01914 27.8343 7.53137 28.0228 7.07628C28.2113 6.62119 28.4876 6.20769 28.8359 5.85938ZM32.5 20C32.5 19.0054 32.8951 18.0516 33.5984 17.3484C34.3016 16.6451 35.2554 16.25 36.25 16.25C37.2446 16.25 38.1984 16.6451 38.9017 17.3484C39.6049 18.0516 40 19.0054 40 20C40 20.9946 39.6049 21.9484 38.9017 22.6517C38.1984 23.3549 37.2446 23.75 36.25 23.75C35.2554 23.75 34.3016 23.3549 33.5984 22.6517C32.8951 21.9484 32.5 20.9946 32.5 20ZM16.25 36.25C16.25 35.2554 16.6451 34.3016 17.3483 33.5984C18.0516 32.8951 19.0054 32.5 20 32.5C20.9946 32.5 21.9484 32.8951 22.6517 33.5984C23.3549 34.3016 23.75 35.2554 23.75 36.25C23.75 37.2446 23.3549 38.1984 22.6517 38.9017C21.9484 39.6049 20.9946 40 20 40C19.0054 40 18.0516 39.6049 17.3483 38.9017C16.6451 38.1984 16.25 37.2446 16.25 36.25ZM5.85938 28.8359C6.56282 28.1325 7.5169 27.7373 8.51172 27.7373C9.0043 27.7373 9.49207 27.8343 9.94716 28.0228C10.4022 28.2113 10.8158 28.4876 11.1641 28.8359C11.5124 29.1843 11.7887 29.5978 11.9772 30.0528C12.1657 30.5079 12.2627 30.9957 12.2627 31.4883C12.2627 31.9809 12.1657 32.4686 11.9772 32.9237C11.7887 33.3788 11.5124 33.7923 11.1641 34.1406C10.4606 34.8441 9.50654 35.2393 8.51172 35.2393C7.5169 35.2393 6.56282 34.8441 5.85938 34.1406C5.15593 33.4372 4.76074 32.4831 4.76074 31.4883C4.76074 30.4935 5.15593 29.5394 5.85938 28.8359ZM28.8438 28.8359C29.188 28.4703 29.6022 28.1776 30.0617 27.9751C30.5213 27.7726 31.0168 27.6644 31.5189 27.657C32.0211 27.6497 32.5196 27.7432 32.9848 27.9322C33.4501 28.1211 33.8727 28.4016 34.2276 28.7569C34.5824 29.1123 34.8622 29.5353 35.0505 30.0009C35.2387 30.4664 35.3316 30.9651 35.3235 31.4672C35.3154 31.9693 35.2065 32.4647 35.0033 32.9239C34.8001 33.3832 34.5068 33.7969 34.1406 34.1406C33.7923 34.4889 33.3788 34.7652 32.9237 34.9537C32.4686 35.1422 31.9809 35.2393 31.4883 35.2393C30.9957 35.2393 30.5079 35.1422 30.0528 34.9537C29.5978 34.7652 29.1842 34.4889 28.8359 34.1406C28.4876 33.7923 28.2113 33.3788 28.0228 32.9237C27.8343 32.4686 27.7373 31.9809 27.7373 31.4883C27.7373 30.9957 27.8343 30.5079 28.0228 30.0528C28.2113 29.5978 28.4876 29.1843 28.8359 28.8359H28.8438Z" fill="#0066FF"/>
<path d="M23.75 3.75C23.75 2.75544 23.3549 1.80161 22.6517 1.09835C21.9484 0.395088 20.9946 0 20 0C19.0054 0 18.0516 0.395088 17.3483 1.09835C16.6451 1.80161 16.25 2.75544 16.25 3.75C16.25 4.74456 16.6451 5.69839 17.3483 6.40165C18.0516 7.10491 19.0054 7.5 20 7.5C20.9946 7.5 21.9484 7.10491 22.6517 6.40165C23.3549 5.69839 23.75 4.74456 23.75 3.75ZM7.5 20C7.5 19.0054 7.10491 18.0516 6.40165 17.3483C5.69839 16.6451 4.74456 16.25 3.75 16.25C2.75544 16.25 1.80161 16.6451 1.09835 17.3483C0.395088 18.0516 0 19.0054 0 20C0 20.9946 0.395088 21.9484 1.09835 22.6517C1.80161 23.3549 2.75544 23.75 3.75 23.75C4.74456 23.75 5.69839 23.3549 6.40165 22.6517C7.10491 21.9484 7.5 20.9946 7.5 20ZM5.85938 11.1641C6.20769 11.5124 6.62119 11.7887 7.07628 11.9772C7.53137 12.1657 8.01913 12.2627 8.51172 12.2627C9.0043 12.2627 9.49207 12.1657 9.94716 11.9772C10.4022 11.7887 10.8158 11.5124 11.1641 11.1641C11.5124 10.8158 11.7887 10.4022 11.9772 9.94716C12.1657 9.49207 12.2627 9.0043 12.2627 8.51172C12.2627 8.01913 12.1657 7.53137 11.9772 7.07628C11.7887 6.62119 11.5124 6.20769 11.1641 5.85938C10.4606 5.15593 9.50654 4.76074 8.51172 4.76074C7.5169 4.76074 6.56282 5.15593 5.85938 5.85938C5.15593 6.56282 4.76074 7.5169 4.76074 8.51172C4.76074 9.50654 5.15593 10.4606 5.85938 11.1641Z" fill="#0066FF"/>
</g>
<defs>
<clipPath id="clip0_5_899">
<rect width="40" height="40" fill="white"/>
</clipPath>
</defs>
</svg>
