<svg width="48" height="48" viewBox="0 0 48 48" fill="none" xmlns="http://www.w3.org/2000/svg">
<path d="M19.9295 19.7726C20.2652 20.0758 20.8079 20.0758 21.14 19.7726C21.472 19.4695 21.4756 18.9792 21.14 18.6793L19.1761 16.9055L29.3913 16.9022C29.8662 16.9022 30.2482 16.5571 30.2482 16.1282C30.2482 15.6993 29.8662 15.3542 29.3913 15.3542H19.1761L21.14 13.5803C21.4756 13.2772 21.4756 12.7869 21.14 12.487C20.8043 12.1871 20.2616 12.1838 19.9295 12.487L16.5017 15.5799C16.1661 15.8831 16.1661 16.3733 16.5017 16.6733L19.9295 19.7694V19.7726ZM31.9983 8.42008C32.3339 8.11691 32.3339 7.62669 31.9983 7.32675L28.5705 4.22737C28.2348 3.92421 27.6921 3.92421 27.36 4.22737C27.028 4.53054 27.0244 5.02076 27.36 5.3207L29.3239 7.09454L19.1087 7.09776C18.6338 7.09776 18.2518 7.44285 18.2518 7.8718C18.2518 8.30075 18.6338 8.64584 19.1087 8.64584H29.3239L27.36 10.4197C27.0244 10.7228 27.0244 11.2131 27.36 11.513C27.6957 11.8129 28.2384 11.8162 28.5705 11.513L31.9983 8.41685V8.42008Z" fill="#0066FF"/>
<path d="M8.95739 36.1108H7.62784C7.5767 35.8267 7.48153 35.5767 7.34233 35.3608C7.20313 35.1449 7.03267 34.9616 6.83097 34.8111C6.62926 34.6605 6.40341 34.5469 6.15341 34.4702C5.90625 34.3935 5.64347 34.3551 5.36506 34.3551C4.86222 34.3551 4.41193 34.4815 4.0142 34.7344C3.61932 34.9872 3.30682 35.358 3.0767 35.8466C2.84943 36.3352 2.7358 36.9318 2.7358 37.6364C2.7358 38.3466 2.84943 38.946 3.0767 39.4347C3.30682 39.9233 3.62074 40.2926 4.01847 40.5426C4.41619 40.7926 4.86364 40.9176 5.3608 40.9176C5.63636 40.9176 5.89773 40.8807 6.14489 40.8068C6.39489 40.7301 6.62074 40.6179 6.82244 40.4702C7.02415 40.3224 7.1946 40.142 7.33381 39.929C7.47585 39.7131 7.57386 39.4659 7.62784 39.1875L8.95739 39.1918C8.88636 39.6207 8.74858 40.0156 8.54403 40.3764C8.34233 40.7344 8.08239 41.044 7.7642 41.3054C7.44886 41.5639 7.08807 41.7642 6.68182 41.9062C6.27557 42.0483 5.83239 42.1193 5.35227 42.1193C4.59659 42.1193 3.9233 41.9403 3.33239 41.5824C2.74148 41.2216 2.27557 40.706 1.93466 40.0355C1.59659 39.3651 1.42756 38.5653 1.42756 37.6364C1.42756 36.7045 1.59801 35.9048 1.93892 35.2372C2.27983 34.5668 2.74574 34.0526 3.33665 33.6946C3.92756 33.3338 4.59943 33.1534 5.35227 33.1534C5.81534 33.1534 6.24716 33.2202 6.64773 33.3537C7.05114 33.4844 7.41335 33.6776 7.73438 33.9332C8.0554 34.1861 8.32102 34.4957 8.53125 34.8622C8.74148 35.2259 8.88352 35.642 8.95739 36.1108ZM13.1879 42.1321C12.5742 42.1321 12.0387 41.9915 11.5813 41.7102C11.1239 41.429 10.7688 41.0355 10.516 40.5298C10.2631 40.0241 10.1367 39.4332 10.1367 38.7571C10.1367 38.0781 10.2631 37.4844 10.516 36.9759C10.7688 36.4673 11.1239 36.0724 11.5813 35.7912C12.0387 35.5099 12.5742 35.3693 13.1879 35.3693C13.8015 35.3693 14.337 35.5099 14.7944 35.7912C15.2518 36.0724 15.6069 36.4673 15.8597 36.9759C16.1126 37.4844 16.239 38.0781 16.239 38.7571C16.239 39.4332 16.1126 40.0241 15.8597 40.5298C15.6069 41.0355 15.2518 41.429 14.7944 41.7102C14.337 41.9915 13.8015 42.1321 13.1879 42.1321ZM13.1921 41.0625C13.5898 41.0625 13.9194 40.9574 14.1808 40.7472C14.4421 40.5369 14.6353 40.2571 14.7603 39.9077C14.8881 39.5582 14.9521 39.1733 14.9521 38.7528C14.9521 38.3352 14.8881 37.9517 14.7603 37.6023C14.6353 37.25 14.4421 36.9673 14.1808 36.7543C13.9194 36.5412 13.5898 36.4347 13.1921 36.4347C12.7915 36.4347 12.4592 36.5412 12.195 36.7543C11.9336 36.9673 11.739 37.25 11.6112 37.6023C11.4862 37.9517 11.4237 38.3352 11.4237 38.7528C11.4237 39.1733 11.4862 39.5582 11.6112 39.9077C11.739 40.2571 11.9336 40.5369 12.195 40.7472C12.4592 40.9574 12.7915 41.0625 13.1921 41.0625ZM18.9354 38.1136V42H17.6612V35.4545H18.8842V36.5199H18.9652C19.1158 36.1733 19.3516 35.8949 19.6726 35.6847C19.9964 35.4744 20.4041 35.3693 20.8956 35.3693C21.3416 35.3693 21.7322 35.4631 22.0675 35.6506C22.4027 35.8352 22.6626 36.1108 22.8473 36.4773C23.032 36.8437 23.1243 37.2969 23.1243 37.8366V42H21.8501V37.9901C21.8501 37.5156 21.7266 37.1449 21.4794 36.8778C21.2322 36.608 20.8928 36.473 20.4609 36.473C20.1655 36.473 19.9027 36.5369 19.6726 36.6648C19.4453 36.7926 19.2649 36.9801 19.1314 37.2273C19.0007 37.4716 18.9354 37.767 18.9354 38.1136ZM30.1982 35.4545L27.8246 42H26.4609L24.0831 35.4545H25.451L27.1087 40.4915H27.1768L28.8303 35.4545H30.1982ZM33.994 42.1321C33.3491 42.1321 32.7937 41.9943 32.3278 41.7188C31.8647 41.4403 31.5067 41.0497 31.2539 40.5469C31.0039 40.0412 30.8789 39.4489 30.8789 38.7699C30.8789 38.0994 31.0039 37.5085 31.2539 36.9972C31.5067 36.4858 31.859 36.0866 32.3107 35.7997C32.7653 35.5128 33.2965 35.3693 33.9045 35.3693C34.2738 35.3693 34.6317 35.4304 34.9783 35.5526C35.3249 35.6747 35.636 35.8665 35.9116 36.1278C36.1871 36.3892 36.4045 36.7287 36.5636 37.1463C36.7227 37.5611 36.8022 38.0653 36.8022 38.6591V39.1108H31.5991V38.1562H35.5536C35.5536 37.821 35.4854 37.5241 35.3491 37.2656C35.2127 37.0043 35.021 36.7983 34.7738 36.6477C34.5295 36.4972 34.2425 36.4219 33.913 36.4219C33.555 36.4219 33.2425 36.5099 32.9755 36.6861C32.7113 36.8594 32.5067 37.0866 32.3619 37.3679C32.2198 37.6463 32.1488 37.9489 32.1488 38.2756V39.0213C32.1488 39.4588 32.2255 39.831 32.3789 40.1378C32.5352 40.4446 32.7525 40.679 33.0309 40.8409C33.3093 41 33.6346 41.0795 34.0067 41.0795C34.2482 41.0795 34.4684 41.0455 34.6673 40.9773C34.8661 40.9062 35.038 40.8011 35.1829 40.6619C35.3278 40.5227 35.4386 40.3509 35.5153 40.1463L36.7212 40.3636C36.6246 40.7187 36.4513 41.0298 36.2013 41.2969C35.9542 41.5611 35.6431 41.767 35.2681 41.9148C34.896 42.0597 34.4712 42.1321 33.994 42.1321ZM38.2159 42V35.4545H39.4474V36.4943H39.5156C39.6349 36.142 39.8452 35.8651 40.1463 35.6634C40.4503 35.4588 40.794 35.3565 41.1776 35.3565C41.2571 35.3565 41.3509 35.3594 41.4588 35.3651C41.5696 35.3707 41.6562 35.3778 41.7188 35.3864V36.6051C41.6676 36.5909 41.5767 36.5753 41.446 36.5582C41.3153 36.5384 41.1847 36.5284 41.054 36.5284C40.7528 36.5284 40.4844 36.5923 40.2486 36.7202C40.0156 36.8452 39.831 37.0199 39.6946 37.2443C39.5582 37.4659 39.4901 37.7187 39.4901 38.0028V42H38.2159ZM46.2635 35.4545V36.4773H42.6882V35.4545H46.2635ZM43.647 33.8864H44.9212V40.0781C44.9212 40.3253 44.9581 40.5114 45.032 40.6364C45.1058 40.7585 45.201 40.8423 45.3175 40.8878C45.4368 40.9304 45.5661 40.9517 45.7053 40.9517C45.8075 40.9517 45.897 40.9446 45.9737 40.9304C46.0504 40.9162 46.1101 40.9048 46.1527 40.8963L46.3828 41.9489C46.3089 41.9773 46.2038 42.0057 46.0675 42.0341C45.9311 42.0653 45.7607 42.0824 45.5561 42.0852C45.2209 42.0909 44.9084 42.0312 44.6186 41.9062C44.3288 41.7812 44.0945 41.5881 43.9155 41.3267C43.7365 41.0653 43.647 40.7372 43.647 40.3423V33.8864Z" fill="#0066FF"/>
</svg>
