<svg width="34" height="48" viewBox="0 0 34 48" fill="none" xmlns="http://www.w3.org/2000/svg">
<path d="M23.25 12C23.25 10.2761 22.5652 8.62279 21.3462 7.40381C20.1272 6.18482 18.4739 5.5 16.75 5.5C15.0261 5.5 13.3728 6.18482 12.1538 7.40381C10.9348 8.62279 10.25 10.2761 10.25 12C10.25 13.7239 10.9348 15.3772 12.1538 16.5962C13.3728 17.8152 15.0261 18.5 16.75 18.5C18.4739 18.5 20.1272 17.8152 21.3462 16.5962C22.5652 15.3772 23.25 13.7239 23.25 12ZM8.75 12C8.75 9.87827 9.59285 7.84344 11.0931 6.34315C12.5934 4.84285 14.6283 4 16.75 4C18.8717 4 20.9066 4.84285 22.4069 6.34315C23.9071 7.84344 24.75 9.87827 24.75 12C24.75 14.1217 23.9071 16.1566 22.4069 17.6569C20.9066 19.1571 18.8717 20 16.75 20C14.6283 20 12.5934 19.1571 11.0931 17.6569C9.59285 16.1566 8.75 14.1217 8.75 12ZM17.4 8.175V8.61875C17.7031 8.65625 18.0062 8.74062 18.3062 8.825C18.3656 8.84062 18.4219 8.85625 18.4812 8.875C18.8406 8.975 19.0531 9.34688 18.9531 9.70625C18.8531 10.0656 18.4812 10.275 18.1219 10.1781C18.0719 10.1656 18.025 10.15 17.975 10.1375C17.7563 10.075 17.5375 10.0156 17.3156 9.97188C16.9031 9.89375 16.425 9.93125 16.0406 10.0969C15.6969 10.2469 15.4125 10.6094 15.8031 10.8594C16.1094 11.0563 16.4844 11.1562 16.8406 11.2531C16.9156 11.2719 16.9875 11.2937 17.0594 11.3125C17.5469 11.45 18.1687 11.6281 18.6344 11.9469C19.2406 12.3625 19.525 13.0375 19.3906 13.7625C19.2625 14.4625 18.775 14.9219 18.1906 15.1594C17.9469 15.2594 17.6812 15.3219 17.4031 15.3531V15.8281C17.4031 16.2 17.1 16.5031 16.7281 16.5031C16.3563 16.5031 16.0531 16.2 16.0531 15.8281V15.2844C15.6 15.1813 15.1562 15.0375 14.7156 14.8938C14.3625 14.7781 14.1687 14.3937 14.2875 14.0406C14.4062 13.6875 14.7875 13.4938 15.1406 13.6125C15.2188 13.6375 15.2969 13.6656 15.375 13.6906C15.7281 13.8094 16.0906 13.9313 16.4531 13.9906C16.9844 14.0688 17.4094 14.0219 17.6875 13.9094C18.0625 13.7594 18.2406 13.3125 17.8719 13.0625C17.5562 12.8469 17.1656 12.7406 16.7937 12.6406C16.7219 12.6219 16.6531 12.6031 16.5813 12.5813C16.1094 12.4469 15.5187 12.2812 15.075 11.9969C14.4656 11.6062 14.1562 10.9563 14.2875 10.2344C14.4125 9.55312 14.9437 9.1 15.5062 8.85625C15.6781 8.78125 15.8625 8.72187 16.0531 8.67812V8.175C16.0531 7.80313 16.3563 7.5 16.7281 7.5C17.1 7.5 17.4031 7.80313 17.4031 8.175H17.4Z" fill="#000A19"/>
<path d="M1.20881 42V33.2727H4.3196C4.99574 33.2727 5.55682 33.3892 6.00284 33.6222C6.4517 33.8551 6.78693 34.1776 7.00852 34.5895C7.23011 34.9986 7.34091 35.4716 7.34091 36.0085C7.34091 36.5426 7.22869 37.0128 7.00426 37.419C6.78267 37.8224 6.44744 38.1364 5.99858 38.3608C5.55256 38.5852 4.99148 38.6974 4.31534 38.6974H1.95881V37.5639H4.19602C4.62216 37.5639 4.96875 37.5028 5.2358 37.3807C5.50568 37.2585 5.70312 37.081 5.82812 36.848C5.95312 36.6151 6.01562 36.3352 6.01562 36.0085C6.01562 35.679 5.9517 35.3935 5.82386 35.152C5.69886 34.9105 5.50142 34.7259 5.23153 34.598C4.96449 34.4673 4.61364 34.402 4.17898 34.402H2.52557V42H1.20881ZM5.51705 38.0625L7.6733 42H6.1733L4.05966 38.0625H5.51705ZM10.7457 42.1449C10.331 42.1449 9.95597 42.0682 9.62074 41.9148C9.28551 41.7585 9.01989 41.5327 8.82386 41.2372C8.63068 40.9418 8.53409 40.5795 8.53409 40.1506C8.53409 39.7812 8.60511 39.4773 8.74716 39.2386C8.8892 39 9.08097 38.8111 9.32244 38.6719C9.56392 38.5327 9.83381 38.4276 10.1321 38.3565C10.4304 38.2855 10.7344 38.2315 11.044 38.1946C11.4361 38.1491 11.7543 38.1122 11.9986 38.0838C12.2429 38.0526 12.4205 38.0028 12.5312 37.9347C12.642 37.8665 12.6974 37.7557 12.6974 37.6023V37.5724C12.6974 37.2003 12.5923 36.9119 12.3821 36.7074C12.1747 36.5028 11.8651 36.4006 11.4531 36.4006C11.0241 36.4006 10.6861 36.4957 10.4389 36.6861C10.1946 36.8736 10.0256 37.0824 9.93182 37.3125L8.73438 37.0398C8.87642 36.642 9.08381 36.321 9.35653 36.0767C9.6321 35.8295 9.94886 35.6506 10.3068 35.5398C10.6648 35.4261 11.0412 35.3693 11.4361 35.3693C11.6974 35.3693 11.9744 35.4006 12.267 35.4631C12.5625 35.5227 12.8381 35.6335 13.0938 35.7955C13.3523 35.9574 13.5639 36.1889 13.7287 36.4901C13.8935 36.7884 13.9759 37.1761 13.9759 37.6534V42H12.7315V41.1051H12.6804C12.598 41.2699 12.4744 41.4318 12.3097 41.5909C12.1449 41.75 11.9332 41.8821 11.6747 41.9872C11.4162 42.0923 11.1065 42.1449 10.7457 42.1449ZM11.0227 41.1222C11.375 41.1222 11.6761 41.0526 11.9261 40.9134C12.179 40.7741 12.3707 40.5923 12.5014 40.3679C12.6349 40.1406 12.7017 39.8977 12.7017 39.6392V38.7955C12.6563 38.8409 12.5682 38.8835 12.4375 38.9233C12.3097 38.9602 12.1634 38.9929 11.9986 39.0213C11.8338 39.0469 11.6733 39.071 11.517 39.0938C11.3608 39.1136 11.2301 39.1307 11.125 39.1449C10.8778 39.1761 10.652 39.2287 10.4474 39.3026C10.2457 39.3764 10.0838 39.483 9.96165 39.6222C9.84233 39.7585 9.78267 39.9403 9.78267 40.1676C9.78267 40.483 9.89915 40.7216 10.1321 40.8835C10.3651 41.0426 10.6619 41.1222 11.0227 41.1222ZM18.7283 35.4545V36.4773H15.1531V35.4545H18.7283ZM16.1119 33.8864H17.386V40.0781C17.386 40.3253 17.4229 40.5114 17.4968 40.6364C17.5707 40.7585 17.6658 40.8423 17.7823 40.8878C17.9016 40.9304 18.0309 40.9517 18.1701 40.9517C18.2724 40.9517 18.3619 40.9446 18.4386 40.9304C18.5153 40.9162 18.5749 40.9048 18.6175 40.8963L18.8477 41.9489C18.7738 41.9773 18.6687 42.0057 18.5323 42.0341C18.396 42.0653 18.2255 42.0824 18.021 42.0852C17.6857 42.0909 17.3732 42.0312 17.0835 41.9062C16.7937 41.7812 16.5593 41.5881 16.3803 41.3267C16.2013 41.0653 16.1119 40.7372 16.1119 40.3423V33.8864ZM22.8885 42.1321C22.2436 42.1321 21.6882 41.9943 21.2223 41.7188C20.7592 41.4403 20.4013 41.0497 20.1484 40.5469C19.8984 40.0412 19.7734 39.4489 19.7734 38.7699C19.7734 38.0994 19.8984 37.5085 20.1484 36.9972C20.4013 36.4858 20.7536 36.0866 21.2053 35.7997C21.6598 35.5128 22.1911 35.3693 22.799 35.3693C23.1683 35.3693 23.5263 35.4304 23.8729 35.5526C24.2195 35.6747 24.5305 35.8665 24.8061 36.1278C25.0817 36.3892 25.299 36.7287 25.4581 37.1463C25.6172 37.5611 25.6967 38.0653 25.6967 38.6591V39.1108H20.4936V38.1562H24.4482C24.4482 37.821 24.38 37.5241 24.2436 37.2656C24.1072 37.0043 23.9155 36.7983 23.6683 36.6477C23.424 36.4972 23.1371 36.4219 22.8075 36.4219C22.4496 36.4219 22.1371 36.5099 21.87 36.6861C21.6058 36.8594 21.4013 37.0866 21.2564 37.3679C21.1143 37.6463 21.0433 37.9489 21.0433 38.2756V39.0213C21.0433 39.4588 21.12 39.831 21.2734 40.1378C21.4297 40.4446 21.647 40.679 21.9254 40.8409C22.2038 41 22.5291 41.0795 22.9013 41.0795C23.1428 41.0795 23.3629 41.0455 23.5618 40.9773C23.7607 40.9062 23.9325 40.8011 24.0774 40.6619C24.2223 40.5227 24.3331 40.3509 24.4098 40.1463L25.6158 40.3636C25.5192 40.7187 25.3459 41.0298 25.0959 41.2969C24.8487 41.5611 24.5376 41.767 24.1626 41.9148C23.7905 42.0597 23.3658 42.1321 22.8885 42.1321ZM32.0153 37.0526L30.8604 37.2571C30.8121 37.1094 30.7354 36.9687 30.6303 36.8352C30.5281 36.7017 30.3888 36.5923 30.2127 36.5071C30.0366 36.4219 29.8164 36.3793 29.5522 36.3793C29.1914 36.3793 28.8903 36.4602 28.6488 36.6222C28.4073 36.7812 28.2866 36.9872 28.2866 37.2401C28.2866 37.4588 28.3675 37.6349 28.5295 37.7685C28.6914 37.902 28.9528 38.0114 29.3136 38.0966L30.3533 38.3352C30.9556 38.4744 31.4045 38.6889 31.6999 38.9787C31.9954 39.2685 32.1431 39.6449 32.1431 40.108C32.1431 40.5 32.0295 40.8494 31.8022 41.1562C31.5778 41.4602 31.2638 41.6989 30.8604 41.8722C30.4599 42.0455 29.9954 42.1321 29.467 42.1321C28.734 42.1321 28.136 41.9759 27.6729 41.6634C27.2099 41.348 26.9258 40.9006 26.8207 40.321L28.0522 40.1335C28.1289 40.4545 28.2866 40.6974 28.5252 40.8622C28.7638 41.0241 29.0749 41.1051 29.4585 41.1051C29.8761 41.1051 30.2099 41.0185 30.4599 40.8452C30.7099 40.669 30.8349 40.4545 30.8349 40.2017C30.8349 39.9972 30.7582 39.8253 30.6048 39.6861C30.4542 39.5469 30.2227 39.4418 29.9102 39.3707L28.8022 39.1278C28.1914 38.9886 27.7397 38.767 27.4471 38.4631C27.1573 38.1591 27.0124 37.7741 27.0124 37.3082C27.0124 36.9219 27.1204 36.5838 27.3363 36.294C27.5522 36.0043 27.8505 35.7784 28.2312 35.6165C28.6119 35.4517 29.0479 35.3693 29.5394 35.3693C30.2468 35.3693 30.8036 35.5227 31.2099 35.8295C31.6161 36.1335 31.8846 36.5412 32.0153 37.0526Z" fill="#000A19"/>
</svg>
